#!OML:ASF F:\VICON\USERDATA\INSTALL\rory3\rory3.ASF
:FULLY-SPECIFIED
:DEGREES
258
root -6.45543 17.6407 10.0363 -178.383 31.8697 -177.662
lowerback 11.4788 2.12809 0.584192
upperback 0.823724 3.01194 0.526401
thorax -5.56969 1.50606 -0.264744
lowerneck -15.4487 -7.20947 -11.532
upperneck 35.7647 -7.51988 7.52153
head 16.1778 -2.90738 4.13305
rclavicle -1.04356e-013 8.97016e-015
rhumerus -36.2014 -14.5429 -71.3526
rradius 33.8967
rwrist 4.93803
rhand -20.5625 6.69008
rfingers 7.12502
rthumb 5.79679 -23.2106
lclavicle -1.04356e-013 8.97016e-015
lhumerus -37.167 13.8261 77.4334
lradius 30.147
lwrist -9.7984
lhand -18.4047 24.3357
lfingers 7.12502
lthumb 7.87971 54.1689
rfemur -4.32245 -3.45436 20.8657
rtibia 28.6729
rfoot -23.3842 1.55007
rtoes -12.1336
lfemur -14.3737 5.40509 -19.2727
ltibia 43.629
lfoot -19.6465 -8.54631
ltoes -20.0842
259
root -6.4283 17.6251 10.0744 -178.312 31.5685 -177.577
lowerback 11.4947 2.11824 0.631332
upperback 0.747851 3.00666 0.580551
thorax -5.65909 1.50109 -0.236278
lowerneck -15.4703 -7.21679 -11.6073
upperneck 35.8113 -7.53582 7.64011
head 16.2211 -2.90264 4.2006
rclavicle -3.45544e-014 -2.43511e-015
rhumerus -36.3128 -14.6483 -71.2027
rradius 33.748
rwrist 5.03295
rhand -20.559 6.72263
rfingers 7.12502
rthumb 5.80011 -23.178
lclavicle -3.45544e-014 -2.43511e-015
lhumerus -37.52 13.8289 77.3634
lradius 30.308
lwrist -8.7807
lhand -17.8474 25.5287
lfingers 7.12502
lthumb 8.41762 55.341
rfemur -4.70093 -3.56143 21.1379
rtibia 29.3182
rfoot -23.6422 1.42865
rtoes -11.7636
lfemur -13.843 5.12791 -19.6147
ltibia 43.0292
lfoot -18.526 -10.1496
ltoes -14.6047
260
root -6.39937 17.6131 10.1087 -178.303 31.3226 -177.665
lowerback 11.4692 2.15512 0.518126
upperback 0.669014 3.03813 0.583271
thorax -5.73377 1.51725 -0.175847
lowerneck -15.5233 -7.24601 -11.6186
upperneck 35.9241 -7.57926 7.71387
head 16.3038 -2.90317 4.23554
rclavicle -6.13266e-014 8.19987e-016
rhumerus -36.387 -14.9729 -71.0101
rradius 33.583
rwrist 5.26441
rhand -20.3372 6.71833
rfingers 7.12502
rthumb 6.01426 -23.1763
lclavicle -6.13266e-014 8.19987e-016
lhumerus -37.8804 13.7318 77.3541
lradius 30.3717
lwrist -7.62419
lhand -17.7118 25.9376
lfingers 7.12502
lthumb 8.54847 55.7446
rfemur -5.09174 -3.91124 21.2228
rtibia 29.9113
rfoot -23.9517 1.40171
rtoes -11.3392
lfemur -13.2925 5.01155 -20.1382
ltibia 42.3588
lfoot -17.6998 -11.1512
ltoes -9.39934
261
root -6.37336 17.5997 10.1373 -178.208 31.0643 -177.655
lowerback 11.3181 2.15739 0.495973
upperback 0.643223 3.03698 0.611857
thorax -5.67915 1.51731 -0.127565
lowerneck -15.6141 -7.21271 -11.3561
upperneck 35.9017 -7.51986 7.46853
head 16.274 -2.87519 4.08706
rclavicle 1.57568e-014 8.44835e-016
rhumerus -36.3199 -15.3688 -70.8246
rradius 33.352
rwrist 5.67467
rhand -20.225 6.63665
rfingers 7.12502
rthumb 6.1226 -23.2549
lclavicle 1.57568e-014 8.44835e-016
lhumerus -38.1607 13.9364 77.2204
lradius 30.4451
lwrist -7.50535
lhand -17.4856 26.171
lfingers 7.12502
lthumb 8.76678 55.9689
rfemur -5.50414 -4.4992 21.383
rtibia 30.422
rfoot -24.2596 1.33427
rtoes -11.2754
lfemur -12.7833 4.87298 -20.5644
ltibia 41.6626
lfoot -17.1286 -11.7055
ltoes -3.62225
262
root -6.34667 17.5896 10.1648 -178.064 30.8401 -177.612
lowerback 11.1597 2.15096 0.475953
upperback 0.570248 3.02356 0.647875
thorax -5.67041 1.5102 -0.0716258
lowerneck -15.6591 -7.17666 -11.1917
upperneck 35.915 -7.4598 7.32843
head 16.2645 -2.84397 4.00724
rclavicle 6.57022e-014 -1.69588e-015
rhumerus -36.4202 -15.6762 -70.6601
rradius 33.2494
rwrist 6.01533
rhand -20.1317 6.61072
rfingers 7.12502
rthumb 6.21271 -23.2782
lclavicle 6.57022e-014 -1.69588e-015
lhumerus -38.5674 14.3896 76.9007
lradius 30.6168
lwrist -8.25879
lhand -16.7472 27.001
lfingers 7.12502
lthumb 9.47931 56.7678
rfemur -5.914 -4.80528 21.6165
rtibia 30.8556
rfoot -24.3376 1.04282
rtoes -11.2906
lfemur -12.2797 4.54018 -20.9166
ltibia 40.9183
lfoot -16.777 -11.1846
ltoes 2.05486
263
root -6.31742 17.5825 10.1946 -178.031 30.5759 -177.617
lowerback 11.0668 2.1639 0.337435
upperback 0.546909 3.02432 0.695843
thorax -5.65278 1.51441 0.0593086
lowerneck -15.651 -7.2031 -11.2922
upperneck 35.893 -7.52485 7.49355
head 16.2762 -2.86039 4.08651
rclavicle -8.59385e-015 1.20436e-015
rhumerus -36.5202 -15.98 -70.4881
rradius 33.2335
rwrist 6.40508
rhand -19.8105 6.64784
rfingers 7.12502
rthumb 6.52273 -23.2317
lclavicle -8.59385e-015 1.20436e-015
lhumerus -38.8824 14.5366 76.7454
lradius 30.7985
lwrist -8.51701
lhand -16.0009 28.1839
lfingers 7.12502
lthumb 10.1993 57.9166
rfemur -6.166 -5.04216 21.7938
rtibia 31.2065
rfoot -24.2692 0.952128
rtoes -10.4638
lfemur -11.6853 4.02058 -21.2999
ltibia 40.1062
lfoot -17.2489 -8.48239
ltoes 1.57299
